<?xml version="1.0" encoding="iso-8859-1"?>
<!-- Generator: Adobe Illustrator 19.0.0, SVG Export Plug-In . SVG Version: 6.00 Build 0)  -->
<svg version="1.1" id="Layer_1" xmlns="http://www.w3.org/2000/svg" xmlns:xlink="http://www.w3.org/1999/xlink" x="0px" y="0px"
	 viewBox="0 0 512 512" style="enable-background:new 0 0 512 512; fill: white" xml:space="preserve">
<g>
	<g>
		<path d="M457.968,196.284H302.784v-18.936c0-29.792-24.24-54.032-54.04-54.032H54.032C24.24,123.316,0,147.556,0,177.348v84.328
			c0,29.8,24.24,54.04,54.032,54.04h155.184v18.928c0,29.8,24.24,54.04,54.04,54.04h194.712c29.792,0,54.032-24.24,54.032-54.04
			v-84.328C512,220.524,487.76,196.284,457.968,196.284z M209.224,250.316v33.4H54.032c-12.152,0-22.032-9.888-22.032-22.04v-84.328
			c0-12.152,9.88-22.032,22.032-22.032h194.712c12.16,0,22.04,9.88,22.04,22.032v18.936h-7.52
			C233.464,196.284,209.224,220.524,209.224,250.316z M270.784,228.284v33.392c0,12.16-9.88,22.04-22.04,22.04h-7.52v-33.4
			c0-12.152,9.88-22.032,22.04-22.032H270.784z M457.968,356.684H263.256c-12.16,0-22.04-9.88-22.04-22.04v-18.928h7.52
			c29.8,0,54.04-24.24,54.04-54.04v-33.392H457.96c12.152,0,22.032,9.88,22.032,22.032v84.328H480
			C480,346.804,470.12,356.684,457.968,356.684z"/>
	</g>
</g>
<g>
</g>
<g>
</g>
<g>
</g>
<g>
</g>
<g>
</g>
<g>
</g>
<g>
</g>
<g>
</g>
<g>
</g>
<g>
</g>
<g>
</g>
<g>
</g>
<g>
</g>
<g>
</g>
<g>
</g>
</svg>
